# xmcd CD database file
#
# Track frame offsets:
#	187
#	15622
#	31012
#
# Disc length: 617 seconds
#
# Revision: 0
# Processed by: cddbd v1.5.1PL2 Copyright (c) Steve Scherf et al.
# Submitted via: CDex 1.60beta1
#
DISCID=14026703
DTITLE=The Dynamics - それがあなたのいいところ
DYEAR=1993
DGENRE=JPop
TTITLE0=それがあなたのいいところ
TTITLE1=それがあなたのいいところ (男性用カラオケ)
TTITLE2=それがあなたのいいところ (カラオケ)
EXTD=YEAR: 1993
EXTT0=
EXTT1=
EXTT2=
PLAYORDER=
